<svg aria-hidden="true" style="position: absolute; width: 0; height: 0; overflow: hidden;" version="1.1" xmlns="http://www.w3.org/2000/svg" xmlns:xlink="http://www.w3.org/1999/xlink">
<defs>
<symbol id="shopping-bag-icon" viewBox="0 0 32 32">
<path d="M10.667 10.667v-4c0-0.707 0.281-1.386 0.781-1.886s1.178-0.781 1.886-0.781h5.333c0.707 0 1.385 0.281 1.886 0.781s0.781 1.178 0.781 1.886v4h4c0.707 0 1.385 0.281 1.886 0.781s0.781 1.178 0.781 1.886v12c0 0.707-0.281 1.385-0.781 1.886s-1.178 0.781-1.886 0.781h-18.667c-0.707 0-1.386-0.281-1.886-0.781s-0.781-1.178-0.781-1.886v-12c0-0.707 0.281-1.386 0.781-1.886s1.178-0.781 1.886-0.781h4zM6.667 13.333v12h18.667v-12h-4.003v4h-2.664v-4h-5.333v4h-2.667v-4h-4zM13.333 10.667h5.333v-4h-5.333v4z"></path>
</symbol>
<symbol id="clock-icon" viewBox="0 0 32 32">
<path d="M29.531 12.875h-8c-0.137 0-0.25 0.113-0.25 0.25v1.5c0 0.137 0.113 0.25 0.25 0.25h8c0.137 0 0.25-0.112 0.25-0.25v-1.5c0-0.137-0.113-0.25-0.25-0.25zM25.344 17.125h-3.813c-0.137 0-0.25 0.112-0.25 0.25v1.5c0 0.138 0.113 0.25 0.25 0.25h3.813c0.137 0 0.25-0.113 0.25-0.25v-1.5c0-0.137-0.113-0.25-0.25-0.25zM14.916 10.078h-1.353c-0.194 0-0.35 0.156-0.35 0.35v7.75c0 0.113 0.053 0.216 0.144 0.281l4.653 3.394c0.156 0.113 0.375 0.081 0.487-0.075l0.803-1.097v-0.003c0.113-0.156 0.078-0.375-0.078-0.487l-3.959-2.863v-6.9c0.003-0.194-0.156-0.35-0.347-0.35z"></path>
<path d="M25.15 21.059h-1.806c-0.175 0-0.341 0.091-0.434 0.241-0.397 0.628-0.859 1.209-1.391 1.741-0.916 0.916-1.981 1.634-3.166 2.134-1.228 0.519-2.531 0.781-3.875 0.781-1.347 0-2.65-0.263-3.875-0.781-1.184-0.5-2.25-1.219-3.166-2.134s-1.634-1.981-2.134-3.166c-0.519-1.225-0.781-2.528-0.781-3.875s0.263-2.647 0.781-3.875c0.5-1.184 1.219-2.25 2.134-3.166s1.981-1.634 3.166-2.134c1.225-0.519 2.531-0.781 3.875-0.781 1.347 0 2.65 0.263 3.875 0.781 1.184 0.5 2.25 1.219 3.166 2.134 0.531 0.531 0.994 1.113 1.391 1.741 0.094 0.15 0.259 0.241 0.434 0.241h1.806c0.216 0 0.353-0.225 0.256-0.416-2.037-4.053-6.169-6.688-10.781-6.741-6.753-0.084-12.363 5.444-12.375 12.191-0.013 6.759 5.466 12.244 12.225 12.244 4.672 0 8.872-2.644 10.931-6.744 0.097-0.191-0.044-0.416-0.256-0.416z"></path>
</symbol>
<symbol id="slide-button-icon-down" viewBox="0 0 32 32">
<path d="M22.667 9.667l-6.667 10-6.667-10c-0.088-0.131-0.2-0.244-0.331-0.332s-0.278-0.149-0.433-0.18c-0.155-0.031-0.314-0.031-0.469-0.001s-0.302 0.091-0.433 0.179c-0.131 0.088-0.244 0.2-0.332 0.331s-0.149 0.278-0.18 0.433c-0.031 0.155-0.031 0.314-0 0.469s0.091 0.302 0.179 0.433l7.557 11.336c0.122 0.183 0.287 0.332 0.48 0.436s0.41 0.158 0.629 0.158c0.22 0 0.436-0.054 0.629-0.158s0.358-0.253 0.48-0.436l7.557-11.336c0.088-0.131 0.148-0.279 0.179-0.433s0.030-0.314-0-0.469-0.092-0.302-0.18-0.433c-0.088-0.131-0.201-0.244-0.332-0.331s-0.279-0.148-0.433-0.179c-0.155-0.031-0.314-0.030-0.469 0.001s-0.302 0.092-0.433 0.18c-0.131 0.088-0.244 0.201-0.331 0.332z"></path>
</symbol>
<symbol id="slide-button-icon-right" viewBox="0 0 32 32">
<path d="M9.667 22.667l10-6.667-10-6.667c-0.131-0.088-0.244-0.2-0.332-0.331s-0.149-0.278-0.18-0.433c-0.031-0.155-0.031-0.314-0.001-0.469s0.091-0.302 0.179-0.433c0.088-0.131 0.2-0.244 0.331-0.332s0.278-0.149 0.433-0.18c0.155-0.031 0.314-0.031 0.469-0s0.302 0.091 0.433 0.179l11.336 7.557c0.183 0.122 0.332 0.287 0.436 0.48s0.158 0.41 0.158 0.629c0 0.22-0.054 0.436-0.158 0.629s-0.253 0.358-0.436 0.48l-11.336 7.557c-0.131 0.088-0.279 0.148-0.433 0.179s-0.314 0.030-0.469-0-0.302-0.092-0.433-0.18c-0.131-0.088-0.244-0.201-0.331-0.332s-0.148-0.279-0.179-0.433c-0.031-0.155-0.030-0.314 0.001-0.469s0.092-0.302 0.18-0.433c0.088-0.131 0.201-0.244 0.332-0.331z"></path>
</symbol>
<symbol id="slide-button-icon-left" viewBox="0 0 32 32">
<path d="M22.333 22.667l-10-6.667 10-6.667c0.131-0.088 0.244-0.2 0.332-0.331s0.149-0.278 0.18-0.433 0.031-0.314 0.001-0.469c-0.031-0.155-0.092-0.302-0.179-0.433s-0.2-0.244-0.331-0.332c-0.131-0.088-0.278-0.149-0.433-0.18s-0.314-0.031-0.469-0c-0.155 0.031-0.302 0.091-0.433 0.179l-11.336 7.557c-0.183 0.122-0.332 0.287-0.436 0.48s-0.158 0.41-0.158 0.629c0 0.22 0.054 0.436 0.158 0.629s0.253 0.358 0.436 0.48l11.336 7.557c0.131 0.088 0.279 0.148 0.433 0.179s0.314 0.030 0.469-0 0.302-0.092 0.433-0.18c0.131-0.088 0.244-0.201 0.331-0.332s0.148-0.279 0.179-0.433c0.031-0.155 0.030-0.314-0.001-0.469s-0.092-0.302-0.18-0.433c-0.088-0.131-0.201-0.244-0.332-0.331z"></path>
</symbol>
<symbol id="icon-cib_skillshare" viewBox="0 0 32 32">
<path d="M14.057 31.88c-2.854-0.37-5.792-1.594-7.932-3.307-4.818-3.844-7.005-9.917-5.755-15.948 0.536-2.604 1.932-5.344 3.719-7.318 1.316-1.482 2.904-2.698 4.677-3.583 2.354-1.193 4.604-1.729 7.26-1.729 1.906 0 3.438 0.25 5.193 0.849 2.306 0.791 4.4 2.098 6.124 3.821s3.032 3.817 3.824 6.122c0.938 2.75 1.109 5.677 0.51 8.578-0.479 2.292-1.714 4.87-3.234 6.734-0.625 0.771-2.063 2.146-2.818 2.703-2.259 1.677-4.915 2.738-7.708 3.078-0.823 0.104-3.063 0.099-3.859 0h-0.001zM18.417 30.542c3.898-0.653 7.377-2.829 9.672-6.047 2.703-3.797 3.427-8.891 1.901-13.333-0.359-1.042-1.25-2.781-1.901-3.698-0.724-1.026-2.516-2.823-3.547-3.547-1-0.708-2.703-1.568-3.865-1.948-2.097-0.697-4.325-0.914-6.517-0.634s-4.294 1.048-6.15 2.249c-1.746 1.147-3.238 2.639-4.385 4.385-1.201 1.855-1.969 3.955-2.249 6.147s-0.063 4.418 0.634 6.514c0.385 1.161 1.245 2.87 1.948 3.87 0.729 1.026 2.521 2.823 3.547 3.547 0.922 0.646 2.656 1.536 3.698 1.901 2.319 0.788 4.797 0.992 7.214 0.594zM12.875 25.177c-0.748-0.113-1.465-0.375-2.109-0.771-0.578-0.37-4.943-4.646-5.156-5.047-0.245-0.458 0.182-1.292 0.792-1.547l0.286-0.12-0.88-0.896c-0.484-0.495-0.943-1.021-1.016-1.167-0.172-0.333-0.177-1.047-0.016-1.365 0.068-0.13 0.229-0.328 0.354-0.438 0.214-0.177 0.234-0.24 0.214-0.688-0.026-0.396 0.010-0.552 0.182-0.849 0.25-0.427 0.766-0.714 1.271-0.719 0.281 0 0.354-0.036 0.474-0.245 0.313-0.547 1.208-0.745 1.891-0.411l0.37 0.177 0.182-0.177c0.25-0.229 0.75-0.432 1.078-0.432 0.656 0 1.583 0.755 1.583 1.286 0 0.635-0.578 0.745-1.151 0.219-0.38-0.354-0.573-0.391-0.729-0.141-0.078 0.12 0.109 0.344 1.229 1.474 1.12 1.125 1.323 1.365 1.323 1.578-0.009 0.163-0.078 0.317-0.195 0.432s-0.272 0.182-0.435 0.188c-0.203 0-0.536-0.292-2.073-1.823-1.568-1.563-1.854-1.813-1.979-1.734-0.339 0.214-0.224 0.37 1.609 2.208 0.995 1 1.813 1.885 1.813 1.969 0 0.172-0.156 0.49-0.286 0.573-0.107 0.047-0.223 0.068-0.339 0.063-0.214 0.005-0.542-0.292-2.286-2.031-1.75-1.74-2.063-2.021-2.188-1.943-0.344 0.219-0.229 0.37 1.766 2.375 1.089 1.089 2 2.063 2.026 2.167 0.057 0.188-0.068 0.516-0.234 0.63-0.11 0.047-0.229 0.068-0.349 0.063-0.214 0-0.484-0.234-1.927-1.677-1.391-1.391-1.714-1.677-1.891-1.661-0.5 0.057-0.323 0.281 2.26 2.87 2.24 2.245 2.526 2.563 2.526 2.797 0.002 0.086-0.017 0.171-0.056 0.247s-0.097 0.142-0.168 0.191c-0.401 0.318-0.557 0.245-1.568-0.734-0.516-0.495-1.047-0.974-1.188-1.063-0.255-0.156-0.901-0.224-1.021-0.099-0.042 0.036 0.911 1.042 2.115 2.234 2.005 1.984 2.234 2.188 2.823 2.469 0.543 0.27 1.14 0.412 1.746 0.413s1.205-0.136 1.749-0.403c1.682-0.802 2.615-2.75 2.156-4.516-0.229-0.88-0.516-1.302-1.672-2.495-1.333-1.365-1.641-1.74-1.969-2.396-0.365-0.734-0.521-1.448-0.521-2.339 0-0.964 0.099-1.401 0.526-2.302 0.406-0.859 1.255-1.76 2.094-2.224 1.646-0.917 3.813-0.839 5.385 0.188 0.313 0.203 1.443 1.266 2.849 2.677 2.089 2.094 2.328 2.365 2.328 2.604 0 0.568-0.464 1.198-0.979 1.328-0.193 0.052-0.156 0.104 0.719 0.995 0.51 0.516 0.984 1.073 1.057 1.245 0.245 0.589 0.135 1.161-0.313 1.63-0.229 0.24-0.26 0.323-0.266 0.802-0.005 0.422-0.052 0.599-0.219 0.839-0.132 0.195-0.308 0.356-0.515 0.469s-0.437 0.175-0.673 0.182c-0.323 0-0.385 0.031-0.547 0.276-0.365 0.563-1.313 0.76-1.927 0.396l-0.307-0.182-0.219 0.214c-0.484 0.464-1.266 0.526-1.859 0.146-0.479-0.302-0.833-0.724-0.833-0.99 0-0.234 0.339-0.62 0.547-0.62 0.198 0 0.464 0.156 0.766 0.438 0.302 0.286 0.563 0.286 0.604-0.005 0.021-0.156-0.229-0.453-1.24-1.469-1.063-1.073-1.266-1.318-1.266-1.526-0.002-0.116 0.019-0.232 0.063-0.339 0.115-0.172 0.438-0.292 0.635-0.24 0.104 0.026 0.984 0.839 1.948 1.802 0.969 0.969 1.818 1.76 1.896 1.76 0.214 0 0.354-0.214 0.255-0.396-0.047-0.083-0.865-0.922-1.813-1.87-1.484-1.479-1.724-1.755-1.724-1.974-0.005-0.118 0.017-0.235 0.063-0.344 0.089-0.13 0.401-0.286 0.578-0.286 0.078 0 1.057 0.911 2.177 2.026 2.052 2.042 2.203 2.156 2.417 1.818 0.078-0.125-0.203-0.443-1.943-2.188-1.797-1.802-2.036-2.073-2.036-2.307 0-0.161 0.073-0.328 0.188-0.432 0.38-0.359 0.495-0.286 2.344 1.552 1.75 1.745 1.906 1.859 2.12 1.526 0.078-0.125-0.276-0.51-2.448-2.688-2.365-2.375-2.536-2.568-2.536-2.844 0-0.417 0.24-0.615 0.703-0.583 0.083 0.005 0.583 0.427 1.099 0.932 0.521 0.505 1.083 0.979 1.25 1.052 0.328 0.135 0.708 0.156 0.87 0.052 0.156-0.099-4.167-4.354-4.729-4.651-0.482-0.26-1.012-0.419-1.557-0.466s-1.095 0.017-1.615 0.19c-0.52 0.173-0.998 0.45-1.407 0.815s-0.738 0.809-0.968 1.306c-0.271 0.578-0.307 0.75-0.344 1.495-0.031 0.703-0.005 0.922 0.146 1.37 0.271 0.797 0.505 1.125 1.719 2.365 1.313 1.344 1.563 1.651 1.896 2.37 0.938 2 0.542 4.313-1.005 5.854-1.177 1.182-2.781 1.734-4.37 1.516v0.001z"></path>
</symbol>
<symbol id="icon-bi_book" viewBox="0 0 32 32">
<path  d="M2 5.656c1.77-0.74 4.308-1.538 6.776-1.786 2.66-0.268 4.916 0.126 6.224 1.504v19.492c-1.87-1.060-4.24-1.206-6.426-0.986-2.36 0.24-4.74 0.922-6.574 1.622v-19.846zM17 5.374c1.308-1.378 3.564-1.772 6.224-1.504 2.468 0.248 5.006 1.046 6.776 1.786v19.846c-1.836-0.7-4.214-1.384-6.574-1.62-2.188-0.222-4.556-0.078-6.426 0.984v-19.492zM16 3.566c-1.97-1.694-4.826-1.946-7.426-1.686-3.028 0.306-6.084 1.344-7.988 2.21-0.175 0.079-0.323 0.207-0.427 0.369s-0.159 0.349-0.159 0.541v22c0 0.167 0.042 0.332 0.122 0.479s0.196 0.271 0.337 0.362 0.302 0.144 0.469 0.157c0.167 0.012 0.334-0.018 0.486-0.087 1.764-0.8 4.606-1.762 7.36-2.040 2.818-0.284 5.18 0.174 6.446 1.754 0.094 0.117 0.212 0.211 0.347 0.276s0.283 0.098 0.433 0.098 0.298-0.034 0.433-0.098c0.135-0.065 0.254-0.159 0.347-0.276 1.266-1.58 3.628-2.038 6.444-1.754 2.756 0.278 5.6 1.24 7.362 2.040 0.152 0.069 0.32 0.099 0.486 0.087s0.328-0.066 0.469-0.157 0.256-0.215 0.337-0.362c0.080-0.147 0.122-0.312 0.122-0.479v-22c0-0.192-0.055-0.38-0.159-0.541s-0.252-0.289-0.427-0.369c-1.904-0.866-4.96-1.904-7.988-2.21-2.6-0.262-5.456-0.008-7.426 1.686z"></path>
</symbol>
<symbol id="group-icon" viewBox="0 0 32 32">
<path d="M12 4c-1.768 0-3.464 0.702-4.714 1.953s-1.953 2.946-1.953 4.714c0 1.768 0.702 3.464 1.953 4.714s2.946 1.953 4.714 1.953 3.464-0.702 4.714-1.953c1.25-1.25 1.953-2.946 1.953-4.714s-0.702-3.464-1.953-4.714c-1.25-1.25-2.946-1.953-4.714-1.953zM8 10.667c0-1.061 0.421-2.078 1.172-2.828s1.768-1.172 2.828-1.172c1.061 0 2.078 0.421 2.828 1.172s1.172 1.768 1.172 2.828c0 1.061-0.421 2.078-1.172 2.828s-1.768 1.172-2.828 1.172c-1.061 0-2.078-0.421-2.828-1.172s-1.172-1.768-1.172-2.828zM22.544 10.957c-0.375-0.191-0.79-0.291-1.211-0.291v-2.667c0.842 0 1.672 0.199 2.422 0.582s1.399 0.937 1.894 1.619c0.495 0.681 0.821 1.47 0.952 2.302s0.063 1.683-0.197 2.483c-0.261 0.801-0.708 1.528-1.304 2.123s-1.324 1.040-2.126 1.299c-0.801 0.259-1.652 0.325-2.484 0.192s-1.62-0.461-2.3-0.957l1.571-2.155c0.297 0.216 0.636 0.369 0.995 0.448s0.731 0.083 1.092 0.012c0.361-0.071 0.703-0.217 1.005-0.427s0.557-0.48 0.75-0.794c0.193-0.313 0.318-0.663 0.369-1.027s0.026-0.735-0.074-1.089-0.271-0.684-0.504-0.968c-0.233-0.285-0.522-0.518-0.85-0.685zM26.664 28c-0-1.414-0.562-2.769-1.562-3.769s-2.355-1.561-3.769-1.562v-2.669c2.122 0 4.156 0.843 5.656 2.344s2.343 3.535 2.344 5.656h-2.669zM21.333 28h-2.667c0-1.768-0.702-3.464-1.953-4.714s-2.946-1.953-4.714-1.953-3.464 0.702-4.714 1.953c-1.25 1.25-1.953 2.946-1.953 4.714h-2.667c0-2.475 0.983-4.849 2.734-6.6s4.124-2.734 6.6-2.734 4.849 0.983 6.6 2.734c1.75 1.75 2.734 4.124 2.734 6.6z"></path>
</symbol>
<symbol id="icon-akar-icons_chat-dots" viewBox="0 0 32 32">
<path fill="none" stroke="#f5f5f5" style="stroke: var(--color3, #f5f5f5)" stroke-linejoin="round" stroke-linecap="round" stroke-miterlimit="4" stroke-width="2.6667" d="M18.667 25.333c5.028 0 7.543 0 9.104-1.563 1.563-1.561 1.563-4.076 1.563-9.104s0-7.543-1.563-9.104c-1.561-1.563-4.076-1.563-9.104-1.563h-5.333c-5.028 0-7.543 0-9.104 1.563-1.563 1.561-1.563 4.076-1.563 9.104s0 7.543 1.563 9.104c0.871 0.872 2.037 1.257 3.771 1.427"></path>
<path fill="none" stroke="#f5f5f5" style="stroke: var(--color3, #f5f5f5)" stroke-linejoin="miter" stroke-linecap="round" stroke-miterlimit="4" stroke-width="2.6667" d="M16 14.667v0.013M10.667 14.667v0.013M21.333 14.667v0.013M18.667 25.333c-1.648 0-3.464 0.667-5.121 1.527-2.664 1.383-3.996 2.075-4.652 1.633-0.656-0.44-0.532-1.807-0.283-4.539l0.056-0.621"></path>
</symbol>
<symbol id="icon-arcticons_math" viewBox="0 0 32 32">
<path fill="none" stroke="#fff" style="stroke: var(--color2, #fff)" stroke-linejoin="round" stroke-linecap="round" stroke-miterlimit="4" stroke-width="1.3333" d="M27 8.333h-22c-0.736 0-1.333 0.597-1.333 1.333v12.667c0 0.736 0.597 1.333 1.333 1.333h22c0.736 0 1.333-0.597 1.333-1.333v-12.667c0-0.736-0.597-1.333-1.333-1.333z"></path>
<path fill="none" stroke="#fff" style="stroke: var(--color2, #fff)" stroke-linejoin="round" stroke-linecap="round" stroke-miterlimit="4" stroke-width="1.3333" d="M23.667 27v-22c0-0.736-0.597-1.333-1.333-1.333h-12.667c-0.736 0-1.333 0.597-1.333 1.333v22c0 0.736 0.597 1.333 1.333 1.333h12.667c0.736 0 1.333-0.597 1.333-1.333z"></path>
<path fill="none" stroke="#fff" style="stroke: var(--color2, #fff)" stroke-linejoin="round" stroke-linecap="round" stroke-miterlimit="4" stroke-width="1.3333" d="M20.087 14.647l-3.293 4.367M20.087 19.013l-3.293-4.367M20.967 12.667h-5.407l-2.587 6.667-1.94-4.687"></path>
</symbol>
<symbol id="search-icon" viewBox="0 0 32 32">
<path d="M13.333 24c2.367-0.001 4.665-0.793 6.529-2.251l5.861 5.861 1.885-1.885-5.861-5.861c1.459-1.864 2.251-4.163 2.252-6.531 0-5.881-4.785-10.667-10.667-10.667s-10.667 4.785-10.667 10.667c0 5.881 4.785 10.667 10.667 10.667zM13.333 5.333c4.412 0 8 3.588 8 8s-3.588 8-8 8c-4.412 0-8-3.588-8-8s3.588-8 8-8z"></path>
</symbol>
<symbol id="linkedin" viewBox="0 0 32 32">
<path d="M27.313 0h-22.625c-2.584 0-4.688 2.103-4.688 4.688v22.625c0 2.584 2.103 4.687 4.688 4.687h22.625c2.584 0 4.687-2.103 4.687-4.687v-22.625c0-2.584-2.103-4.688-4.687-4.688zM11.313 25.375h-3.75v-13.125h3.75v13.125zM11.313 10.375h-3.75v-3.75h3.75v3.75zM24.438 25.375h-3.75v-7.5c0-1.034-0.841-1.875-1.875-1.875s-1.875 0.841-1.875 1.875v7.5h-3.75v-13.125h3.75v0.707c0.982-0.305 1.621-0.707 2.812-0.707 2.543 0.003 4.688 2.284 4.688 4.98v8.145z"></path>
</symbol>
<symbol id="insta" viewBox="0 0 32 32">
<path d="M23.169 0h-14.338c-4.869 0-8.831 3.962-8.831 8.831v14.338c0 4.869 3.961 8.831 8.831 8.831h14.338c4.87 0 8.831-3.962 8.831-8.831v-14.338c0-4.869-3.961-8.831-8.831-8.831zM29.161 23.169c0 3.304-2.688 5.992-5.992 5.992h-14.339c-3.304 0-5.991-2.688-5.991-5.992v-14.338c0-3.304 2.688-5.992 5.991-5.992h14.338c3.304 0 5.992 2.688 5.992 5.992v14.338h0z"></path>
<path d="M16 7.755c-4.547 0-8.246 3.699-8.246 8.246s3.699 8.245 8.246 8.245 8.246-3.699 8.246-8.245c0-4.547-3.699-8.246-8.246-8.246zM16 21.406c-2.981 0-5.406-2.425-5.406-5.406s2.425-5.406 5.406-5.406 5.406 2.425 5.406 5.406c0 2.981-2.425 5.406-5.406 5.406z"></path>
<path d="M24.591 5.347c-0.547 0-1.084 0.221-1.471 0.609-0.388 0.386-0.611 0.924-0.611 1.473 0 0.547 0.223 1.085 0.611 1.473 0.386 0.386 0.924 0.609 1.471 0.609 0.549 0 1.085-0.223 1.473-0.609 0.388-0.388 0.61-0.926 0.61-1.473 0-0.549-0.221-1.086-0.61-1.473-0.386-0.388-0.924-0.609-1.473-0.609z"></path>
</symbol>
<symbol id="twitter" viewBox="0 0 39 32">
<path d="M39.385 3.788c-1.465 0.642-3.025 1.068-4.652 1.275 1.674-0.999 2.951-2.57 3.552-4.463-1.561 0.93-3.284 1.588-5.12 1.954-1.482-1.578-3.594-2.555-5.898-2.555-4.47 0-8.069 3.628-8.069 8.076 0 0.64 0.054 1.255 0.187 1.841-6.713-0.327-12.652-3.545-16.642-8.446-0.697 1.209-1.105 2.592-1.105 4.081 0 2.796 1.44 5.275 3.586 6.71-1.297-0.025-2.57-0.401-3.648-0.994 0 0.025 0 0.057 0 0.089 0 3.924 2.799 7.183 6.469 7.934-0.657 0.18-1.374 0.266-2.117 0.266-0.517 0-1.039-0.030-1.529-0.138 1.046 3.198 4.015 5.548 7.545 5.625-2.747 2.149-6.235 3.444-10.011 3.444-0.662 0-1.297-0.030-1.932-0.111 3.577 2.306 7.815 3.623 12.386 3.623 14.858 0 22.981-12.308 22.981-22.976 0-0.357-0.012-0.702-0.030-1.044 1.602-1.137 2.949-2.558 4.047-4.192z"></path>
</symbol>
<symbol id="fb" viewBox="0 0 32 32">
<path d="M27.313 0h-22.625c-2.584 0-4.688 2.103-4.688 4.688v22.625c0 2.584 2.103 4.687 4.688 4.687h9.438v-11.313h-3.75v-5.625h3.75v-3.812c0-3.102 2.523-5.625 5.625-5.625h5.688v5.625h-5.688v3.812h5.688l-0.938 5.625h-4.75v11.313h7.563c2.584 0 4.687-2.103 4.687-4.687v-22.625c0-2.584-2.103-4.688-4.687-4.688z"></path>
</symbol>
<symbol id="person-icon" viewBox="0 0 32 32">
<path  d="M16 16c1.591 0 3.117-0.632 4.243-1.757s1.757-2.651 1.757-4.243c0-1.591-0.632-3.117-1.757-4.243s-2.651-1.757-4.243-1.757c-1.591 0-3.117 0.632-4.243 1.757s-1.757 2.651-1.757 4.243c0 1.591 0.632 3.117 1.757 4.243s2.651 1.757 4.243 1.757zM20 10c0 1.061-0.421 2.078-1.172 2.828s-1.768 1.172-2.828 1.172c-1.061 0-2.078-0.421-2.828-1.172s-1.172-1.768-1.172-2.828c0-1.061 0.421-2.078 1.172-2.828s1.768-1.172 2.828-1.172c1.061 0 2.078 0.421 2.828 1.172s1.172 1.768 1.172 2.828zM28 26c0 2-2 2-2 2h-20c0 0-2 0-2-2s2-8 12-8c10 0 12 6 12 8zM26 25.992c-0.002-0.492-0.308-1.972-1.664-3.328-1.304-1.304-3.758-2.664-8.336-2.664-4.58 0-7.032 1.36-8.336 2.664-1.356 1.356-1.66 2.836-1.664 3.328h20z"></path>
</symbol>
<symbol id="star-icon" viewBox="0 0 32 32">
<path  d="M28.378 11.035l-7.934-1.153-3.547-7.191c-0.097-0.197-0.256-0.356-0.453-0.453-0.494-0.244-1.094-0.041-1.341 0.453l-3.547 7.191-7.934 1.153c-0.219 0.031-0.419 0.134-0.572 0.291-0.185 0.19-0.287 0.446-0.284 0.712s0.112 0.519 0.302 0.704l5.741 5.597-1.356 7.903c-0.032 0.184-0.011 0.373 0.059 0.546s0.187 0.323 0.338 0.432 0.33 0.175 0.516 0.188c0.186 0.013 0.372-0.026 0.537-0.113l7.097-3.731 7.097 3.731c0.194 0.103 0.419 0.138 0.634 0.1 0.544-0.094 0.909-0.609 0.816-1.153l-1.356-7.903 5.741-5.597c0.156-0.153 0.259-0.353 0.291-0.572 0.084-0.547-0.297-1.053-0.844-1.134zM20.775 17.55l1.128 6.572-5.903-3.1-5.903 3.103 1.128-6.572-4.775-4.656 6.6-0.959 2.95-5.978 2.95 5.978 6.6 0.959-4.775 4.653z"></path>
</symbol>
</defs>
</svg>
